<svg width="256" height="75" viewBox="0 0 256 75" fill="none" xmlns="http://www.w3.org/2000/svg">
<g clip-path="url(#clip0_101_2)">
<path fill-rule="evenodd" clip-rule="evenodd" d="M3.71212 60.1818C4.81746 60.1818 12.9593 63.9761 17.0689 63.9761C21.1785 63.9761 23.9378 63.4241 24.4571 61.8976C24.9765 60.3711 24.3876 59.103 21.555 58.3157C18.7224 57.5285 6.62311 54.0834 3.71212 50.5271C2.34623 48.8584 1.23203 47.6457 1.00074 43.7064C0.769451 39.7671 1.96464 36.9488 4.38704 34.7779C9.21557 30.4508 13.5227 29.6804 18.5306 29.2871C21.9519 29.0185 25.3313 29.4028 28.538 29.8714C31.7446 30.34 36.389 31.242 36.8322 32.1226C37.2754 33.0032 37.4363 40.5291 36.4906 41.5848C35.5448 42.6404 29.829 40.0447 22.1095 39.9825C19.3395 39.9602 16.7338 40.099 16.1791 41.8275C15.6244 43.556 16.4216 44.4728 17.6515 45.1486C19.8305 46.3457 25.9236 46.8788 29.5806 48.1994C32.0186 49.0798 34.3529 50.4118 36.5835 52.1954C39.2404 55.0243 40.2676 58.3537 39.6649 62.1837C38.7609 67.9287 37.0239 69.5019 34.5661 71.3733C32.1083 73.2447 27.1031 74.5227 22.6452 74.9206C18.1872 75.3184 11.9103 74.1157 9.66254 73.6616C7.41476 73.2076 5.41522 72.1747 4.15445 71.1902C2.89367 70.2056 2.22176 69.8998 1.46066 67.9584C0.699564 66.0171 0.807966 64.4492 1.23203 63.1425C1.65609 61.8358 2.60678 60.1818 3.71212 60.1818Z" fill="#0056F1"/>
<path fill-rule="evenodd" clip-rule="evenodd" d="M46.8561 36.856C52.3152 30.2161 60.5374 28.0407 70.4918 29.7636C80.4462 31.4865 85.2858 39.1209 86.1138 42.6753C86.9417 46.2298 87.7773 50.7616 83.4271 53.2248C81.6435 54.2347 77.0083 54.9595 72.1206 55.5672L71.4038 55.6553C64.583 56.4848 57.5193 57.1039 57.1969 57.9644C56.6312 59.4739 61.1641 63.8259 69.3563 64.0382C77.5486 64.2505 85.0149 58.5963 86.1138 58.8739C87.2126 59.1515 86.4076 64.5298 85.4517 66.8511C84.4959 69.1723 83.0949 70.8451 79.9267 72.5368C76.7584 74.2284 74.1765 74.7655 70.2666 74.9591C66.3567 75.1527 61.3153 74.665 56.9756 73.3733C52.6358 72.0816 46.0576 68.3782 43.1064 59.8085C40.1553 51.2388 41.3969 43.4959 46.8561 36.856ZM63.1773 39.9532C57.8236 40.6404 54.7347 47.158 56.2792 47.584C57.8236 48.0101 70.6451 46.1028 72.1937 45.0251C73.7424 43.9474 68.5309 39.266 63.1773 39.9532Z" fill="#0056F1"/>
<path fill-rule="evenodd" clip-rule="evenodd" d="M91.1254 29.8901C98.5763 27.0458 101.839 29.8901 103.784 29.8901C105.728 29.8901 110.05 28.6625 117.997 29.5195C125.944 30.3766 133.385 33.6059 134.249 40.6319C135.114 47.6579 135.039 72.5078 134.249 73.3291C133.46 74.1503 127.278 74.8188 124.441 74.1503C121.605 73.4818 120.307 71.4195 119.849 70.0583C119.391 68.6971 119.951 47.1257 119.185 43.819C118.419 40.5122 115.526 40.9666 112.467 40.6319C109.407 40.2973 106.991 40.9679 106.151 42.3935C105.31 43.819 106.409 68.7371 106.151 70.9782C105.892 73.2194 105.838 73.7808 102.777 74.1503C99.7155 74.5199 98.2487 74.5199 95.4874 74.1503C92.7261 73.7808 91.6059 72.8465 90.6843 70.5343C90.0478 68.9372 90.2415 52.72 90.2415 40.6319C90.2415 35.4471 90.004 30.8679 91.1254 29.8901Z" fill="#0056F1"/>
<path fill-rule="evenodd" clip-rule="evenodd" d="M198.055 29.7298C205.496 26.8753 213.061 30.0161 213.061 33.9262C213.061 37.8362 213.319 68.7166 213.061 70.9658C212.802 73.215 212.748 73.7785 209.691 74.1493C206.634 74.5202 205.169 74.5202 202.412 74.1493C199.654 73.7785 198.535 72.8408 197.615 70.5203C196.979 68.9174 197.173 52.6419 197.173 40.5103C197.173 35.3069 196.936 30.7112 198.055 29.7298Z" fill="#FFC804"/>
<path fill-rule="evenodd" clip-rule="evenodd" d="M169.431 14.3362C170.115 13.5494 184.24 12.2126 184.24 20.4404C184.24 25.8708 184.671 46.6098 184.679 60.4512L184.679 61.6899C184.67 68.1884 184.556 72.9072 184.24 73.3153C183.617 74.1189 177.107 74.4163 170.558 74.4272L169.934 74.4273L169.311 74.4258C165.89 74.4129 162.559 74.3253 160.159 74.1945C152.887 73.7981 148.479 70.862 144.756 67.6609C141.033 64.4598 137.498 57.6482 138.468 49.4081C139.437 41.1679 141.613 35.9456 149.016 31.0703C156.419 26.195 167.057 28.2986 169.06 29.4197C169.06 28.021 169.001 25.1461 168.99 22.2744L168.989 21.7961C168.989 21.7165 168.989 21.6369 168.989 21.5574L168.989 21.082C168.994 17.7661 169.085 14.7344 169.431 14.3362ZM153.542 51.3371C153.542 65.3741 168.949 62.9715 168.949 60.822V41.014C168.949 38.8037 153.542 37.3 153.542 51.3371Z" fill="#0056F1"/>
<path fill-rule="evenodd" clip-rule="evenodd" d="M241.299 62.2349C242.404 63.5809 248.377 62.5208 248.058 67.575C247.738 72.6292 243.886 75.1722 237.821 74.9909C231.757 74.8096 228.992 71.9051 226.74 68.8337C224.487 65.7623 225.134 62.2759 224.807 56.6086C224.481 50.9413 225.162 46.0332 224.807 45.1606C224.453 44.2881 217.815 45.2855 217.078 44.4129C216.342 43.5404 216.471 37.6411 217.497 35.5281C218.523 33.4151 224.129 34.6146 224.807 33.5284C225.486 32.4421 224.411 22.7352 225.356 21.5445C226.301 20.3537 234.462 19.8406 237.821 22.8809C241.181 25.9212 238.725 32.4421 239.982 33.5284C241.238 34.6146 246.998 33.0958 247.725 34.6146C248.452 36.1333 248.094 42.7188 246.871 43.9292C245.648 45.1396 240.955 43.9292 239.982 45.8875C239.008 47.8457 239.437 54.808 239.982 58.0294C240.526 61.2508 240.193 60.8889 241.299 62.2349Z" fill="#FFC804"/>
<path fill-rule="evenodd" clip-rule="evenodd" d="M205.16 20.4845C205.796 20.4845 213.748 13.6751 213.748 8.9422C213.748 4.20934 209.903 0 205.16 0C200.417 0 196.573 4.20934 196.573 8.9422C196.573 13.6751 204.524 20.4845 205.16 20.4845Z" fill="#007F00"/>
<path d="M205.16 23.4733C209.903 23.4733 213.748 22.9728 213.748 22.3555C213.748 21.7382 209.903 21.2377 205.16 21.2377C200.417 21.2377 196.573 21.7382 196.573 22.3555C196.573 22.9728 200.417 23.4733 205.16 23.4733Z" fill="#007F00"/>
</g>
<defs>
<clipPath id="clip0_101_2">
<rect width="256" height="75" fill="white"/>
</clipPath>
</defs>
</svg>
