<?xml version="1.0" encoding="UTF-8"?>
<svg width="256px" height="75px" viewBox="0 0 444 131" version="1.1" xmlns="http://www.w3.org/2000/svg" xmlns:xlink="http://www.w3.org/1999/xlink">
    <title>logo</title>
    <defs>
        <linearGradient x1="0%" y1="50%" x2="100%" y2="50%" id="linearGradient-1">
            <stop stop-color="#FF8500" offset="0%"></stop>
            <stop stop-color="#FFA405" offset="100%"></stop>
        </linearGradient>
        <linearGradient x1="0%" y1="50%" x2="100%" y2="50%" id="linearGradient-2">
            <stop stop-color="#FFA800" offset="0%"></stop>
            <stop stop-color="#FF9909" offset="100%"></stop>
        </linearGradient>
        <linearGradient x1="0%" y1="50%" x2="100%" y2="50%" id="linearGradient-3">
            <stop stop-color="#FF9B50" offset="0%"></stop>
            <stop stop-color="#FD3842" offset="100%"></stop>
        </linearGradient>
        <linearGradient x1="0%" y1="50%" x2="100%" y2="50%" id="linearGradient-4">
            <stop stop-color="#F40076" offset="0%"></stop>
            <stop stop-color="#E20471" offset="100%"></stop>
        </linearGradient>
        <linearGradient x1="0%" y1="50%" x2="100%" y2="50%" id="linearGradient-5">
            <stop stop-color="#FF3C4A" offset="0%"></stop>
            <stop stop-color="#FC006F" offset="100%"></stop>
        </linearGradient>
        <linearGradient x1="0%" y1="50%" x2="100%" y2="50%" id="linearGradient-6">
            <stop stop-color="#F40076" offset="0%"></stop>
            <stop stop-color="#E20471" offset="100%"></stop>
        </linearGradient>
    </defs>
    <g id="logo" stroke="none" stroke-width="1" fill="none" fill-rule="evenodd">
        <g id="fav---v1" transform="translate(-34.000000, -172.000000)">
            <g id="logo" transform="translate(34.000000, 172.000000)">
                <path d="M4.91051413,105.11748 C6.84117504,105.11748 21.0622741,111.744886 28.2403855,111.744886 C35.4184969,111.744886 40.2380571,110.780793 41.145164,108.114472 C42.052271,105.448151 41.0236834,103.2332 36.0760531,101.858126 C31.1284228,100.483052 9.99503491,94.4656694 4.91051413,88.2539482 C2.52476291,85.3392937 0.578616752,83.2211429 0.174634956,76.3404968 C-0.229346839,69.4598507 1.8582407,64.5371382 6.08937157,60.7453658 C14.5232057,53.1872967 22.0464033,51.8416579 30.7933991,51.154861 C36.7693926,50.6856377 42.6720598,51.3569033 48.273004,52.1753332 C53.8739483,52.9937631 61.9861686,54.569349 62.7602932,56.1074843 C63.5344177,57.6456197 63.8154501,70.7908704 62.163563,72.6347129 C60.5116759,74.4785554 50.5279525,69.9447771 37.0446532,69.836092 C32.2062697,69.7970912 27.6551188,70.0395386 26.6861961,73.058693 C25.7172735,76.0778473 27.1096981,77.6792176 29.2580496,78.85951 C33.0639258,80.9504373 43.7065268,81.8816215 50.0941618,84.188247 C54.3525852,85.7259973 58.4298036,88.0525911 62.3258171,91.1680285 C66.9666653,96.1090564 68.7607417,101.924449 67.7080462,108.614207 C66.129003,118.648844 63.095038,121.396609 58.8021491,124.665291 C54.5092602,127.933973 45.7666937,130.166294 37.9802081,130.861237 C30.1937225,131.55618 19.2300503,129.455335 15.3039185,128.662308 C11.3777867,127.869281 7.88526244,126.065149 5.68311056,124.3455 C3.48095868,122.62585 2.30734447,122.091663 0.977964221,118.700729 C-0.351416032,115.309795 -0.162075203,112.571242 0.578616752,110.288869 C1.31930871,108.006495 2.97985322,105.11748 4.91051413,105.11748 Z" id="Path-2" fill="url(#linearGradient-1)"></path>
                <path d="M80.268588,64.3751824 C89.8039089,52.7774998 104.165253,48.9777795 121.55235,51.9870499 C138.939447,54.9963202 147.392526,68.3310698 148.838721,74.5395575 C150.284916,80.7480451 151.744439,88.6635368 144.146061,92.9659789 C141.030726,94.7299802 132.934485,95.9958811 124.397266,97.0573159 L123.145296,97.2112224 C111.231686,98.6601147 98.8937949,99.741504 98.3305587,101.244396 C97.3424251,103.881048 105.259973,111.482567 119.569063,111.853366 C133.878154,112.224166 146.919387,102.348219 148.838721,102.833091 C150.758056,103.317962 149.35202,112.712076 147.682389,116.766524 C146.012757,120.820973 143.565768,123.74278 138.031903,126.697558 C132.498038,129.652337 127.988272,130.59041 121.15902,130.92854 C114.329768,131.266669 105.524099,130.414907 97.9439882,128.158669 C90.3638773,125.902431 78.8738663,119.433838 73.7192454,104.46544 C68.5646244,89.4970419 70.7332671,75.972865 80.268588,64.3751824 Z M108.776283,69.7849051 C99.4252788,70.9851313 94.0299286,82.369221 96.7276037,83.1134184 C99.4252788,83.8576158 121.820116,80.5262504 124.52507,78.6438391 C127.230024,76.7614278 118.127288,68.5846789 108.776283,69.7849051 Z" id="Path-5" fill="url(#linearGradient-2)"></path>
                <path d="M157.592311,52.2080239 C170.606539,47.2399701 176.30612,52.2080239 179.702194,52.2080239 C183.098267,52.2080239 190.647163,50.0638563 204.528292,51.5608089 C218.40942,53.0577615 231.405409,58.6983904 232.915689,70.9704728 C234.425969,83.2425552 234.295433,126.647037 232.915689,128.081483 C231.535945,129.515928 220.739392,130.683558 215.784401,129.515928 C210.82941,128.348298 208.563383,124.746043 207.76327,122.36852 C206.963158,119.990997 207.941425,82.3129895 206.602915,76.5371704 C205.264404,70.7613513 200.212725,71.5549238 194.86883,70.9704728 C189.524936,70.3860217 185.304499,71.5573183 183.83642,74.0472444 C182.36834,76.5371704 184.288145,120.060768 183.83642,123.97531 C183.384695,127.889853 183.2896,128.870499 177.943002,129.515928 C172.596404,130.161357 170.034328,130.161357 165.211303,129.515928 C160.388278,128.870499 158.431673,127.238531 156.821972,123.199867 C155.71013,120.41031 156.048414,92.0842552 156.048414,70.9704728 C156.048414,61.9143506 155.633611,53.9160323 157.592311,52.2080239 Z" id="Path-6" fill="url(#linearGradient-3)"></path>
                <path d="M356.590199,51.9280703 C369.587166,46.9421377 382.7995,52.4281258 382.7995,59.2577087 C382.7995,66.0872917 383.250625,120.024999 382.7995,123.953629 C382.348374,127.882259 382.253406,128.866434 376.913899,129.514186 C371.574392,130.161938 369.015714,130.161938 364.199086,129.514186 C359.382458,128.866434 357.428448,127.228594 355.820882,123.175395 C354.710515,120.375799 355.04835,91.947806 355.04835,70.7580405 C355.04835,61.6693276 354.634097,53.6422254 356.590199,51.9280703 Z" id="Path-6-Copy" fill="url(#linearGradient-4)"></path>
                <path d="M294.365897,25.0406091 C295.560607,23.6662918 320.232085,21.331328 320.232085,35.7025981 C320.232085,45.1876364 320.984718,81.4117221 320.999771,105.588153 L320.999066,107.751742 C320.984027,119.102362 320.784984,127.344542 320.232085,128.057482 C319.143566,129.461083 307.774211,129.980415 296.333807,129.999454 L295.244357,129.999767 L295.244357,129.999767 L294.156437,129.997128 C288.180678,129.974634 282.363287,129.821561 278.171625,129.593093 C265.469619,128.900767 257.769688,123.772288 251.267324,118.181089 C244.764959,112.589889 238.590003,100.692275 240.283606,86.299488 C241.977209,71.9067007 245.776863,62.784925 258.707369,54.2694024 C271.637875,45.7538798 290.219158,49.428219 293.718564,51.3865144 C293.718564,48.943444 293.615588,43.9218587 293.596449,38.9060076 L293.594068,38.0705286 C293.593811,37.9314387 293.593627,37.792464 293.593519,37.6536598 L293.593827,36.8233252 C293.602872,31.0315161 293.761345,25.7360468 294.365897,25.0406091 Z M266.612923,89.6688014 C266.612923,114.186869 293.523888,109.990214 293.523888,106.235866 L293.523888,71.6378893 L293.523888,71.6378893 C293.523888,67.7771257 266.612923,65.1507334 266.612923,89.6688014 Z" id="Path-9" fill="url(#linearGradient-5)"></path>
                <path d="M432.121425,108.703622 C434.053048,111.054642 444.486028,109.202938 443.927335,118.030961 C443.368643,126.858985 436.64039,131.300834 426.048106,130.984183 C415.455823,130.667531 410.626717,125.594221 406.691796,120.229523 C402.756876,114.864825 403.887498,108.775221 403.317038,98.8763788 C402.746578,88.9775364 403.936273,80.4046087 403.317038,78.8805914 C402.697803,77.3565741 391.102812,79.0986064 389.816567,77.5745892 C388.530323,76.0505719 388.756018,65.7465387 390.547699,62.0558026 C392.33938,58.3650665 402.132423,60.4601362 403.317038,58.5628651 C404.501653,56.665594 402.62526,39.7108531 404.275926,37.6310035 C405.926592,35.551154 420.17951,34.6549927 426.048106,39.9653366 C431.916702,45.2756806 427.626181,56.665594 429.821211,58.5628651 C432.016241,60.4601362 442.077236,57.8074003 443.346811,60.4601362 C444.616386,63.112872 443.991048,74.6155565 441.855056,76.729674 C439.719064,78.8437915 431.521931,76.729674 429.821211,80.1501084 C428.120491,83.5705429 428.870609,95.7312278 429.821211,101.358005 C430.771813,106.984782 430.189803,106.352602 432.121425,108.703622 Z" id="Path-10" fill="url(#linearGradient-6)"></path>
                <g id="Group-2" transform="translate(354.000000, 0.000000)" fill="#007F00">
                    <path d="M15,35.7795222 C16.1105511,35.7795222 30,23.885786 30,15.6190476 C30,7.35230922 23.2842712,0 15,0 C6.71572875,0 0,7.35230922 0,15.6190476 C0,23.885786 13.8894489,35.7795222 15,35.7795222 Z" id="Oval"></path>
                    <ellipse id="Oval" cx="15" cy="39.047619" rx="15" ry="1.95238095"></ellipse>
                </g>
            </g>
        </g>
    </g>
</svg>